<mxfile host="app.diagrams.net" agent="Mozilla/5.0 (Macintosh; Intel Mac OS X 10_15_7) AppleWebKit/537.36 (KHTML, like Gecko) Chrome/139.0.0.0 Safari/537.36" version="28.1.1">
  <diagram name="Страница — 1" id="zVwfzDORoOM-FTjkSdzJ">
    <mxGraphModel dx="1956" dy="2017" grid="1" gridSize="10" guides="1" tooltips="1" connect="1" arrows="1" fold="1" page="1" pageScale="1" pageWidth="827" pageHeight="1169" math="0" shadow="0">
      <root>
        <mxCell id="0" />
        <mxCell id="1" parent="0" />
        <mxCell id="ivQptXM1TXExOYF5JyEC-1" value="Actor" style="shape=umlActor;verticalLabelPosition=bottom;verticalAlign=top;html=1;outlineConnect=0;" parent="1" vertex="1">
          <mxGeometry x="-630" y="421.68999999999994" width="30" height="60" as="geometry" />
        </mxCell>
        <mxCell id="ivQptXM1TXExOYF5JyEC-2" value="" style="points=[];aspect=fixed;html=1;align=center;shadow=0;dashed=0;fillColor=#FF6A00;strokeColor=none;shape=mxgraph.alibaba_cloud.dns_domain_name_system;" parent="1" vertex="1">
          <mxGeometry x="-420" y="420.77" width="60.98" height="60" as="geometry" />
        </mxCell>
        <mxCell id="ivQptXM1TXExOYF5JyEC-3" value="" style="endArrow=classic;startArrow=classic;html=1;rounded=0;entryX=0.094;entryY=0.529;entryDx=0;entryDy=0;entryPerimeter=0;" parent="1" source="ivQptXM1TXExOYF5JyEC-1" target="ivQptXM1TXExOYF5JyEC-2" edge="1">
          <mxGeometry width="50" height="50" relative="1" as="geometry">
            <mxPoint x="2" y="519.8599999999999" as="sourcePoint" />
            <mxPoint x="52" y="469.8599999999999" as="targetPoint" />
          </mxGeometry>
        </mxCell>
        <mxCell id="uSaKlAHMNxB41dpOqZy7-3" value="&lt;b&gt;HTTP 3&amp;nbsp;(TLS)&lt;/b&gt;" style="edgeLabel;html=1;align=center;verticalAlign=middle;resizable=0;points=[];" parent="ivQptXM1TXExOYF5JyEC-3" vertex="1" connectable="0">
          <mxGeometry x="0.0941" y="3" relative="1" as="geometry">
            <mxPoint as="offset" />
          </mxGeometry>
        </mxCell>
        <mxCell id="ivQptXM1TXExOYF5JyEC-10" value="" style="group" parent="1" vertex="1" connectable="0">
          <mxGeometry x="360" y="100" width="60" height="60" as="geometry" />
        </mxCell>
        <mxCell id="ivQptXM1TXExOYF5JyEC-8" value="" style="verticalLabelPosition=bottom;sketch=0;html=1;fillColor=#A153A0;strokeColor=#ffffff;verticalAlign=top;align=center;points=[[0,0.5,0],[0.125,0.25,0],[0.25,0,0],[0.5,0,0],[0.75,0,0],[0.875,0.25,0],[1,0.5,0],[0.875,0.75,0],[0.75,1,0],[0.5,1,0],[0.125,0.75,0]];pointerEvents=1;shape=mxgraph.cisco_safe.compositeIcon;bgIcon=ellipse;resIcon=mxgraph.cisco_safe.design.video_endpoint;container=0;" parent="ivQptXM1TXExOYF5JyEC-10" vertex="1">
          <mxGeometry x="10" width="50" height="50" as="geometry" />
        </mxCell>
        <mxCell id="ivQptXM1TXExOYF5JyEC-6" value="Video Saver&lt;div&gt;Service&lt;/div&gt;" style="verticalLabelPosition=bottom;sketch=0;html=1;fillColor=#A153A0;strokeColor=#ffffff;verticalAlign=top;align=center;points=[[0,0.5,0],[0.125,0.25,0],[0.25,0,0],[0.5,0,0],[0.75,0,0],[0.875,0.25,0],[1,0.5,0],[0.875,0.75,0],[0.75,1,0],[0.5,1,0],[0.125,0.75,0]];pointerEvents=1;shape=mxgraph.cisco_safe.compositeIcon;bgIcon=ellipse;resIcon=mxgraph.cisco_safe.design.video_endpoint;container=0;" parent="ivQptXM1TXExOYF5JyEC-10" vertex="1">
          <mxGeometry y="10" width="50" height="50" as="geometry" />
        </mxCell>
        <mxCell id="ivQptXM1TXExOYF5JyEC-11" value="Temp Data&lt;div&gt;S3&lt;/div&gt;" style="sketch=0;outlineConnect=0;fontColor=#232F3E;gradientColor=none;fillColor=#7AA116;strokeColor=none;dashed=0;verticalLabelPosition=bottom;verticalAlign=top;align=center;html=1;fontSize=12;fontStyle=0;aspect=fixed;pointerEvents=1;shape=mxgraph.aws4.bucket;" parent="1" vertex="1">
          <mxGeometry x="620.0000000000001" y="70" width="46.15" height="48" as="geometry" />
        </mxCell>
        <mxCell id="ivQptXM1TXExOYF5JyEC-12" style="edgeStyle=orthogonalEdgeStyle;rounded=0;orthogonalLoop=1;jettySize=auto;html=1;entryX=0;entryY=0.5;entryDx=0;entryDy=0;entryPerimeter=0;" parent="1" source="6tGMRK2spo7_5NMBX7Hg-89" target="ivQptXM1TXExOYF5JyEC-6" edge="1">
          <mxGeometry relative="1" as="geometry">
            <Array as="points">
              <mxPoint x="169" y="145" />
            </Array>
          </mxGeometry>
        </mxCell>
        <mxCell id="6tGMRK2spo7_5NMBX7Hg-35" value="User &lt;span style=&quot;background-color: light-dark(#ffffff, var(--ge-dark-color, #121212)); color: light-dark(rgb(0, 0, 0), rgb(255, 255, 255));&quot;&gt;sends video&lt;/span&gt;" style="edgeLabel;html=1;align=center;verticalAlign=middle;resizable=0;points=[];" parent="ivQptXM1TXExOYF5JyEC-12" vertex="1" connectable="0">
          <mxGeometry x="0.3934" y="2" relative="1" as="geometry">
            <mxPoint as="offset" />
          </mxGeometry>
        </mxCell>
        <mxCell id="uSaKlAHMNxB41dpOqZy7-15" value="&lt;b&gt;GRPC (HTTP2)&lt;/b&gt;" style="edgeLabel;html=1;align=center;verticalAlign=middle;resizable=0;points=[];" parent="ivQptXM1TXExOYF5JyEC-12" vertex="1" connectable="0">
          <mxGeometry x="-0.2877" relative="1" as="geometry">
            <mxPoint as="offset" />
          </mxGeometry>
        </mxCell>
        <mxCell id="6tGMRK2spo7_5NMBX7Hg-21" value="" style="edgeStyle=orthogonalEdgeStyle;rounded=0;orthogonalLoop=1;jettySize=auto;html=1;exitX=0.57;exitY=-0.045;exitDx=0;exitDy=0;exitPerimeter=0;" parent="1" source="ivQptXM1TXExOYF5JyEC-15" target="ivQptXM1TXExOYF5JyEC-33" edge="1">
          <mxGeometry relative="1" as="geometry">
            <Array as="points">
              <mxPoint x="-374" y="-10" />
            </Array>
          </mxGeometry>
        </mxCell>
        <mxCell id="uSaKlAHMNxB41dpOqZy7-19" value="&lt;b&gt;HTTP2 (TLS&lt;/b&gt;&lt;b style=&quot;background-color: light-dark(#ffffff, var(--ge-dark-color, #121212)); color: light-dark(rgb(0, 0, 0), rgb(255, 255, 255));&quot;&gt;)&lt;/b&gt;" style="edgeLabel;html=1;align=center;verticalAlign=middle;resizable=0;points=[];" parent="6tGMRK2spo7_5NMBX7Hg-21" vertex="1" connectable="0">
          <mxGeometry x="-0.8957" y="-1" relative="1" as="geometry">
            <mxPoint y="-1" as="offset" />
          </mxGeometry>
        </mxCell>
        <mxCell id="uSaKlAHMNxB41dpOqZy7-21" value="&lt;b&gt;HTTP2 (TLS&lt;/b&gt;&lt;b style=&quot;color: light-dark(rgb(0, 0, 0), rgb(255, 255, 255));&quot;&gt;)&lt;/b&gt;" style="edgeLabel;html=1;align=center;verticalAlign=middle;resizable=0;points=[];" parent="6tGMRK2spo7_5NMBX7Hg-21" vertex="1" connectable="0">
          <mxGeometry x="0.0825" y="-2" relative="1" as="geometry">
            <mxPoint x="-1" as="offset" />
          </mxGeometry>
        </mxCell>
        <mxCell id="ivQptXM1TXExOYF5JyEC-15" value="CDN" style="image;aspect=fixed;html=1;points=[];align=center;fontSize=12;image=img/lib/azure2/networking/CDN_Profiles.svg;" parent="1" vertex="1">
          <mxGeometry x="-413" y="118.00000000000006" width="68" height="40" as="geometry" />
        </mxCell>
        <mxCell id="ivQptXM1TXExOYF5JyEC-23" value="" style="group" parent="1" vertex="1" connectable="0">
          <mxGeometry x="777.66" y="140" width="53" height="53" as="geometry" />
        </mxCell>
        <mxCell id="ivQptXM1TXExOYF5JyEC-21" value="" style="fillColor=#28A8E0;verticalLabelPosition=bottom;sketch=0;html=1;strokeColor=#ffffff;verticalAlign=top;align=center;points=[[0.145,0.145,0],[0.5,0,0],[0.855,0.145,0],[1,0.5,0],[0.855,0.855,0],[0.5,1,0],[0.145,0.855,0],[0,0.5,0]];pointerEvents=1;shape=mxgraph.cisco_safe.compositeIcon;bgIcon=ellipse;resIcon=mxgraph.cisco_safe.capability.video;" parent="ivQptXM1TXExOYF5JyEC-23" vertex="1">
          <mxGeometry x="10" width="43" height="43" as="geometry" />
        </mxCell>
        <mxCell id="ivQptXM1TXExOYF5JyEC-22" value="Video Process&lt;div&gt;Service&lt;/div&gt;" style="fillColor=#28A8E0;verticalLabelPosition=bottom;sketch=0;html=1;strokeColor=#ffffff;verticalAlign=top;align=center;points=[[0.145,0.145,0],[0.5,0,0],[0.855,0.145,0],[1,0.5,0],[0.855,0.855,0],[0.5,1,0],[0.145,0.855,0],[0,0.5,0]];pointerEvents=1;shape=mxgraph.cisco_safe.compositeIcon;bgIcon=ellipse;resIcon=mxgraph.cisco_safe.capability.video;" parent="ivQptXM1TXExOYF5JyEC-23" vertex="1">
          <mxGeometry y="10" width="43" height="43" as="geometry" />
        </mxCell>
        <mxCell id="ivQptXM1TXExOYF5JyEC-24" style="edgeStyle=orthogonalEdgeStyle;rounded=0;orthogonalLoop=1;jettySize=auto;html=1;exitX=0.5;exitY=0;exitDx=0;exitDy=0;exitPerimeter=0;" parent="1" source="ivQptXM1TXExOYF5JyEC-21" target="ivQptXM1TXExOYF5JyEC-11" edge="1">
          <mxGeometry relative="1" as="geometry">
            <Array as="points">
              <mxPoint x="809" y="100" />
              <mxPoint x="790" y="100" />
              <mxPoint x="790" y="104" />
            </Array>
          </mxGeometry>
        </mxCell>
        <mxCell id="6tGMRK2spo7_5NMBX7Hg-39" value="Catch video&lt;div&gt;for processing&lt;/div&gt;" style="edgeLabel;html=1;align=center;verticalAlign=middle;resizable=0;points=[];" parent="ivQptXM1TXExOYF5JyEC-24" vertex="1" connectable="0">
          <mxGeometry x="0.0225" y="3" relative="1" as="geometry">
            <mxPoint x="4" as="offset" />
          </mxGeometry>
        </mxCell>
        <mxCell id="uSaKlAHMNxB41dpOqZy7-28" value="&lt;b&gt;HTTP2 (TLS&lt;/b&gt;&lt;b style=&quot;color: light-dark(rgb(0, 0, 0), rgb(255, 255, 255));&quot;&gt;)&lt;/b&gt;" style="edgeLabel;html=1;align=center;verticalAlign=middle;resizable=0;points=[];" parent="ivQptXM1TXExOYF5JyEC-24" vertex="1" connectable="0">
          <mxGeometry x="-0.6101" y="-1" relative="1" as="geometry">
            <mxPoint y="27" as="offset" />
          </mxGeometry>
        </mxCell>
        <mxCell id="ivQptXM1TXExOYF5JyEC-30" value="Kafka" style="verticalLabelPosition=bottom;html=1;verticalAlign=top;align=center;strokeColor=none;fillColor=#00BEF2;shape=mxgraph.azure.queue_generic;pointerEvents=1;" parent="1" vertex="1">
          <mxGeometry x="620" y="180" width="70" height="30" as="geometry" />
        </mxCell>
        <mxCell id="ivQptXM1TXExOYF5JyEC-31" style="edgeStyle=orthogonalEdgeStyle;rounded=0;orthogonalLoop=1;jettySize=auto;html=1;exitX=1;exitY=0.5;exitDx=0;exitDy=0;exitPerimeter=0;entryX=0;entryY=0.5;entryDx=0;entryDy=0;entryPerimeter=0;" parent="1" source="ivQptXM1TXExOYF5JyEC-8" target="ivQptXM1TXExOYF5JyEC-30" edge="1">
          <mxGeometry relative="1" as="geometry">
            <Array as="points">
              <mxPoint x="520" y="135" />
              <mxPoint x="520" y="195" />
            </Array>
          </mxGeometry>
        </mxCell>
        <mxCell id="6tGMRK2spo7_5NMBX7Hg-38" value="Send message&lt;div&gt;for video processing&lt;/div&gt;" style="edgeLabel;html=1;align=center;verticalAlign=middle;resizable=0;points=[];" parent="ivQptXM1TXExOYF5JyEC-31" vertex="1" connectable="0">
          <mxGeometry x="0.2647" y="1" relative="1" as="geometry">
            <mxPoint x="-11" y="-27" as="offset" />
          </mxGeometry>
        </mxCell>
        <mxCell id="uSaKlAHMNxB41dpOqZy7-29" value="&lt;b&gt;TCP (TLS)&lt;/b&gt;" style="edgeLabel;html=1;align=center;verticalAlign=middle;resizable=0;points=[];" parent="ivQptXM1TXExOYF5JyEC-31" vertex="1" connectable="0">
          <mxGeometry x="0.3419" y="-1" relative="1" as="geometry">
            <mxPoint as="offset" />
          </mxGeometry>
        </mxCell>
        <mxCell id="6tGMRK2spo7_5NMBX7Hg-4" value="" style="edgeStyle=orthogonalEdgeStyle;rounded=0;orthogonalLoop=1;jettySize=auto;html=1;" parent="1" source="ivQptXM1TXExOYF5JyEC-25" target="ivQptXM1TXExOYF5JyEC-33" edge="1">
          <mxGeometry relative="1" as="geometry">
            <Array as="points" />
          </mxGeometry>
        </mxCell>
        <mxCell id="6tGMRK2spo7_5NMBX7Hg-61" value="Синхронизация данных /&lt;div&gt;замена в случае аварии&lt;/div&gt;" style="edgeLabel;html=1;align=center;verticalAlign=middle;resizable=0;points=[];" parent="6tGMRK2spo7_5NMBX7Hg-4" vertex="1" connectable="0">
          <mxGeometry x="-0.4807" y="2" relative="1" as="geometry">
            <mxPoint as="offset" />
          </mxGeometry>
        </mxCell>
        <mxCell id="uSaKlAHMNxB41dpOqZy7-22" value="&lt;b&gt;HTTP2 (TLS&lt;/b&gt;&lt;b style=&quot;color: light-dark(rgb(0, 0, 0), rgb(255, 255, 255));&quot;&gt;)&lt;/b&gt;" style="edgeLabel;html=1;align=center;verticalAlign=middle;resizable=0;points=[];" parent="6tGMRK2spo7_5NMBX7Hg-4" vertex="1" connectable="0">
          <mxGeometry x="0.4031" y="5" relative="1" as="geometry">
            <mxPoint as="offset" />
          </mxGeometry>
        </mxCell>
        <mxCell id="ivQptXM1TXExOYF5JyEC-25" value="Primary&lt;div&gt;S3&lt;/div&gt;" style="sketch=0;outlineConnect=0;fontColor=#232F3E;gradientColor=none;fillColor=#FF9933;strokeColor=none;dashed=0;verticalLabelPosition=bottom;verticalAlign=top;align=center;html=1;fontSize=12;fontStyle=0;aspect=fixed;pointerEvents=1;shape=mxgraph.aws4.bucket;" parent="1" vertex="1">
          <mxGeometry x="1391.34" y="-41.55" width="65.38" height="68" as="geometry" />
        </mxCell>
        <mxCell id="6tGMRK2spo7_5NMBX7Hg-2" style="edgeStyle=orthogonalEdgeStyle;rounded=0;orthogonalLoop=1;jettySize=auto;html=1;exitX=1;exitY=0.5;exitDx=0;exitDy=0;exitPerimeter=0;" parent="1" source="ivQptXM1TXExOYF5JyEC-22" target="ivQptXM1TXExOYF5JyEC-25" edge="1">
          <mxGeometry relative="1" as="geometry">
            <Array as="points">
              <mxPoint x="1424" y="172" />
            </Array>
          </mxGeometry>
        </mxCell>
        <mxCell id="6tGMRK2spo7_5NMBX7Hg-56" value="Send Video&lt;div&gt;Parts&lt;/div&gt;" style="edgeLabel;html=1;align=center;verticalAlign=middle;resizable=0;points=[];" parent="6tGMRK2spo7_5NMBX7Hg-2" vertex="1" connectable="0">
          <mxGeometry x="-0.2517" y="-1" relative="1" as="geometry">
            <mxPoint y="-1" as="offset" />
          </mxGeometry>
        </mxCell>
        <mxCell id="uSaKlAHMNxB41dpOqZy7-23" value="&lt;b&gt;HTTP2 (TLS&lt;/b&gt;&lt;b style=&quot;color: light-dark(rgb(0, 0, 0), rgb(255, 255, 255));&quot;&gt;)&lt;/b&gt;" style="edgeLabel;html=1;align=center;verticalAlign=middle;resizable=0;points=[];" parent="6tGMRK2spo7_5NMBX7Hg-2" vertex="1" connectable="0">
          <mxGeometry x="0.0046" y="-2" relative="1" as="geometry">
            <mxPoint x="1" as="offset" />
          </mxGeometry>
        </mxCell>
        <mxCell id="ivQptXM1TXExOYF5JyEC-33" value="Read S3&lt;div&gt;Replica&lt;/div&gt;" style="sketch=0;outlineConnect=0;fontColor=#232F3E;gradientColor=none;fillColor=#FF9933;strokeColor=none;dashed=0;verticalLabelPosition=bottom;verticalAlign=top;align=center;html=1;fontSize=12;fontStyle=0;aspect=fixed;pointerEvents=1;shape=mxgraph.aws4.bucket;" parent="1" vertex="1">
          <mxGeometry x="959.6099999999999" y="-19.99909090909091" width="46.15" height="48" as="geometry" />
        </mxCell>
        <mxCell id="6tGMRK2spo7_5NMBX7Hg-34" style="edgeStyle=orthogonalEdgeStyle;rounded=0;orthogonalLoop=1;jettySize=auto;html=1;entryX=0;entryY=0.675;entryDx=0;entryDy=0;entryPerimeter=0;" parent="1" source="6tGMRK2spo7_5NMBX7Hg-89" target="vuh57hzrrYicF6vYEetf-2" edge="1">
          <mxGeometry relative="1" as="geometry">
            <Array as="points">
              <mxPoint x="169" y="1048" />
            </Array>
            <mxPoint x="470.3756844588884" y="835.0000000000005" as="targetPoint" />
          </mxGeometry>
        </mxCell>
        <mxCell id="uSaKlAHMNxB41dpOqZy7-7" value="&lt;b&gt;HTTP3&amp;nbsp;(TLS)&lt;/b&gt;" style="edgeLabel;html=1;align=center;verticalAlign=middle;resizable=0;points=[];" parent="6tGMRK2spo7_5NMBX7Hg-34" vertex="1" connectable="0">
          <mxGeometry x="-0.1827" y="-3" relative="1" as="geometry">
            <mxPoint y="-1" as="offset" />
          </mxGeometry>
        </mxCell>
        <mxCell id="6tGMRK2spo7_5NMBX7Hg-10" value="" style="group" parent="1" vertex="1" connectable="0">
          <mxGeometry x="481.83" y="410" width="52.329999999999984" height="50.81999999999999" as="geometry" />
        </mxCell>
        <mxCell id="6tGMRK2spo7_5NMBX7Hg-9" value="" style="outlineConnect=0;dashed=0;verticalLabelPosition=bottom;verticalAlign=top;align=center;html=1;shape=mxgraph.aws3.corporate_data_center;fillColor=#7D7C7C;gradientColor=none;" parent="6tGMRK2spo7_5NMBX7Hg-10" vertex="1">
          <mxGeometry x="6" width="46.33" height="40.82" as="geometry" />
        </mxCell>
        <mxCell id="6tGMRK2spo7_5NMBX7Hg-8" value="Video Statistics&lt;div&gt;Service&lt;/div&gt;" style="outlineConnect=0;dashed=0;verticalLabelPosition=bottom;verticalAlign=top;align=center;html=1;shape=mxgraph.aws3.corporate_data_center;fillColor=#7D7C7C;gradientColor=none;" parent="6tGMRK2spo7_5NMBX7Hg-10" vertex="1">
          <mxGeometry y="10" width="46.33" height="40.82" as="geometry" />
        </mxCell>
        <mxCell id="6tGMRK2spo7_5NMBX7Hg-17" value="" style="group" parent="1" vertex="1" connectable="0">
          <mxGeometry x="478.00000000000006" y="650" width="60" height="58" as="geometry" />
        </mxCell>
        <mxCell id="6tGMRK2spo7_5NMBX7Hg-15" value="" style="aspect=fixed;sketch=0;html=1;dashed=0;whitespace=wrap;verticalLabelPosition=bottom;verticalAlign=top;fillColor=#2875E2;strokeColor=#ffffff;points=[[0.005,0.63,0],[0.1,0.2,0],[0.9,0.2,0],[0.5,0,0],[0.995,0.63,0],[0.72,0.99,0],[0.5,1,0],[0.28,0.99,0]];shape=mxgraph.kubernetes.icon2;prIcon=user" parent="6tGMRK2spo7_5NMBX7Hg-17" vertex="1">
          <mxGeometry x="10" width="50" height="48" as="geometry" />
        </mxCell>
        <mxCell id="6tGMRK2spo7_5NMBX7Hg-16" value="User Service" style="aspect=fixed;sketch=0;html=1;dashed=0;whitespace=wrap;verticalLabelPosition=bottom;verticalAlign=top;fillColor=#2875E2;strokeColor=#ffffff;points=[[0.005,0.63,0],[0.1,0.2,0],[0.9,0.2,0],[0.5,0,0],[0.995,0.63,0],[0.72,0.99,0],[0.5,1,0],[0.28,0.99,0]];shape=mxgraph.kubernetes.icon2;prIcon=user" parent="6tGMRK2spo7_5NMBX7Hg-17" vertex="1">
          <mxGeometry y="10" width="50" height="48" as="geometry" />
        </mxCell>
        <mxCell id="6tGMRK2spo7_5NMBX7Hg-18" style="edgeStyle=orthogonalEdgeStyle;rounded=0;orthogonalLoop=1;jettySize=auto;html=1;" parent="1" source="6tGMRK2spo7_5NMBX7Hg-89" target="6tGMRK2spo7_5NMBX7Hg-8" edge="1">
          <mxGeometry relative="1" as="geometry">
            <mxPoint x="200" y="390" as="sourcePoint" />
            <mxPoint x="508.3400000000002" y="378.9000000000003" as="targetPoint" />
            <Array as="points">
              <mxPoint x="236" y="449" />
              <mxPoint x="236" y="450" />
            </Array>
          </mxGeometry>
        </mxCell>
        <mxCell id="6tGMRK2spo7_5NMBX7Hg-41" value="Get video meta,&lt;div&gt;views,&amp;nbsp;&lt;span style=&quot;background-color: light-dark(#ffffff, var(--ge-dark-color, #121212)); color: light-dark(rgb(0, 0, 0), rgb(255, 255, 255));&quot;&gt;likes,&amp;nbsp;&lt;/span&gt;&lt;/div&gt;&lt;div&gt;&lt;span style=&quot;background-color: light-dark(#ffffff, var(--ge-dark-color, #121212)); color: light-dark(rgb(0, 0, 0), rgb(255, 255, 255));&quot;&gt;comments&lt;/span&gt;&lt;/div&gt;" style="edgeLabel;html=1;align=center;verticalAlign=middle;resizable=0;points=[];" parent="6tGMRK2spo7_5NMBX7Hg-18" vertex="1" connectable="0">
          <mxGeometry x="-0.4387" relative="1" as="geometry">
            <mxPoint x="108" y="-5" as="offset" />
          </mxGeometry>
        </mxCell>
        <mxCell id="uSaKlAHMNxB41dpOqZy7-14" value="&lt;b&gt;GRPC (HTTP2)&lt;/b&gt;" style="edgeLabel;html=1;align=center;verticalAlign=middle;resizable=0;points=[];" parent="6tGMRK2spo7_5NMBX7Hg-18" vertex="1" connectable="0">
          <mxGeometry x="-0.1552" y="-2" relative="1" as="geometry">
            <mxPoint as="offset" />
          </mxGeometry>
        </mxCell>
        <mxCell id="6tGMRK2spo7_5NMBX7Hg-28" style="edgeStyle=orthogonalEdgeStyle;rounded=0;orthogonalLoop=1;jettySize=auto;html=1;exitX=0.5;exitY=1;exitDx=0;exitDy=0;exitPerimeter=0;entryX=0.25;entryY=0;entryDx=0;entryDy=0;entryPerimeter=0;" parent="1" source="ivQptXM1TXExOYF5JyEC-6" target="6tGMRK2spo7_5NMBX7Hg-9" edge="1">
          <mxGeometry relative="1" as="geometry">
            <Array as="points">
              <mxPoint x="385" y="170" />
              <mxPoint x="450" y="170" />
              <mxPoint x="450" y="310" />
              <mxPoint x="499" y="310" />
            </Array>
            <mxPoint x="540" y="410" as="targetPoint" />
          </mxGeometry>
        </mxCell>
        <mxCell id="6tGMRK2spo7_5NMBX7Hg-40" value="Send some&lt;div&gt;video meta&lt;/div&gt;" style="edgeLabel;html=1;align=center;verticalAlign=middle;resizable=0;points=[];" parent="6tGMRK2spo7_5NMBX7Hg-28" vertex="1" connectable="0">
          <mxGeometry x="-0.0905" relative="1" as="geometry">
            <mxPoint as="offset" />
          </mxGeometry>
        </mxCell>
        <mxCell id="uSaKlAHMNxB41dpOqZy7-17" value="&lt;b&gt;GRPC (HTTP2)&lt;/b&gt;" style="edgeLabel;html=1;align=center;verticalAlign=middle;resizable=0;points=[];" parent="6tGMRK2spo7_5NMBX7Hg-28" vertex="1" connectable="0">
          <mxGeometry x="0.1094" y="-1" relative="1" as="geometry">
            <mxPoint y="1" as="offset" />
          </mxGeometry>
        </mxCell>
        <mxCell id="6tGMRK2spo7_5NMBX7Hg-29" value="Send some&lt;div&gt;video meta&lt;/div&gt;" style="edgeStyle=orthogonalEdgeStyle;rounded=0;orthogonalLoop=1;jettySize=auto;html=1;exitX=0.5;exitY=1;exitDx=0;exitDy=0;exitPerimeter=0;entryX=0.5;entryY=0;entryDx=0;entryDy=0;entryPerimeter=0;" parent="1" source="ivQptXM1TXExOYF5JyEC-22" target="MMesEljA1Y2_ANh_13ck-1" edge="1">
          <mxGeometry x="0.4295" relative="1" as="geometry">
            <mxPoint x="570" y="410" as="targetPoint" />
            <Array as="points">
              <mxPoint x="799" y="280" />
              <mxPoint x="910" y="280" />
              <mxPoint x="910" y="340" />
            </Array>
            <mxPoint as="offset" />
          </mxGeometry>
        </mxCell>
        <mxCell id="uSaKlAHMNxB41dpOqZy7-18" value="&lt;b&gt;TCP (TLS)&lt;/b&gt;" style="edgeLabel;html=1;align=center;verticalAlign=middle;resizable=0;points=[];" parent="6tGMRK2spo7_5NMBX7Hg-29" vertex="1" connectable="0">
          <mxGeometry x="-0.2161" y="-2" relative="1" as="geometry">
            <mxPoint x="2" y="-6" as="offset" />
          </mxGeometry>
        </mxCell>
        <mxCell id="6tGMRK2spo7_5NMBX7Hg-37" style="edgeStyle=orthogonalEdgeStyle;rounded=0;orthogonalLoop=1;jettySize=auto;html=1;exitX=1;exitY=0.51;exitDx=0;exitDy=0;exitPerimeter=0;entryX=0;entryY=0.5;entryDx=0;entryDy=0;entryPerimeter=0;" parent="1" source="ivQptXM1TXExOYF5JyEC-30" target="ivQptXM1TXExOYF5JyEC-22" edge="1">
          <mxGeometry relative="1" as="geometry" />
        </mxCell>
        <mxCell id="uSaKlAHMNxB41dpOqZy7-30" value="&lt;b&gt;TCP (TLS)&lt;/b&gt;" style="edgeLabel;html=1;align=center;verticalAlign=middle;resizable=0;points=[];" parent="6tGMRK2spo7_5NMBX7Hg-37" vertex="1" connectable="0">
          <mxGeometry x="-0.114" y="-1" relative="1" as="geometry">
            <mxPoint as="offset" />
          </mxGeometry>
        </mxCell>
        <mxCell id="6tGMRK2spo7_5NMBX7Hg-45" value="" style="group" parent="1" vertex="1" connectable="0">
          <mxGeometry x="269.99999999999994" y="340" width="60" height="50" as="geometry" />
        </mxCell>
        <mxCell id="6tGMRK2spo7_5NMBX7Hg-43" value="" style="image;sketch=0;aspect=fixed;html=1;points=[];align=center;fontSize=12;image=img/lib/mscae/Cache_Redis_Product.svg;" parent="6tGMRK2spo7_5NMBX7Hg-45" vertex="1">
          <mxGeometry x="10" width="50" height="42" as="geometry" />
        </mxCell>
        <mxCell id="6tGMRK2spo7_5NMBX7Hg-44" value="Redis" style="image;sketch=0;aspect=fixed;html=1;points=[];align=center;fontSize=12;image=img/lib/mscae/Cache_Redis_Product.svg;" parent="6tGMRK2spo7_5NMBX7Hg-45" vertex="1">
          <mxGeometry y="8" width="50" height="42" as="geometry" />
        </mxCell>
        <mxCell id="6tGMRK2spo7_5NMBX7Hg-46" style="edgeStyle=orthogonalEdgeStyle;rounded=0;orthogonalLoop=1;jettySize=auto;html=1;entryX=0.908;entryY=0.482;entryDx=0;entryDy=0;entryPerimeter=0;exitX=0.02;exitY=0.02;exitDx=0;exitDy=0;exitPerimeter=0;" parent="1" source="6tGMRK2spo7_5NMBX7Hg-8" target="6tGMRK2spo7_5NMBX7Hg-43" edge="1">
          <mxGeometry relative="1" as="geometry">
            <Array as="points">
              <mxPoint x="480" y="421" />
              <mxPoint x="480" y="365" />
              <mxPoint x="430" y="365" />
              <mxPoint x="430" y="360" />
            </Array>
            <mxPoint x="530" y="430" as="sourcePoint" />
          </mxGeometry>
        </mxCell>
        <mxCell id="uSaKlAHMNxB41dpOqZy7-31" value="&lt;b&gt;RESP/TCP (TLS)&lt;/b&gt;" style="edgeLabel;html=1;align=center;verticalAlign=middle;resizable=0;points=[];" parent="6tGMRK2spo7_5NMBX7Hg-46" vertex="1" connectable="0">
          <mxGeometry x="0.2513" y="-4" relative="1" as="geometry">
            <mxPoint as="offset" />
          </mxGeometry>
        </mxCell>
        <mxCell id="6tGMRK2spo7_5NMBX7Hg-54" style="edgeStyle=orthogonalEdgeStyle;rounded=0;orthogonalLoop=1;jettySize=auto;html=1;exitX=0.5;exitY=0;exitDx=0;exitDy=0;exitPerimeter=0;" parent="1" source="6tGMRK2spo7_5NMBX7Hg-15" target="ivQptXM1TXExOYF5JyEC-25" edge="1">
          <mxGeometry relative="1" as="geometry">
            <Array as="points">
              <mxPoint x="540" y="650" />
              <mxPoint x="540" y="610" />
              <mxPoint x="1430" y="610" />
              <mxPoint x="1430" y="340" />
              <mxPoint x="1424" y="340" />
            </Array>
          </mxGeometry>
        </mxCell>
        <mxCell id="uSaKlAHMNxB41dpOqZy7-24" value="&lt;b&gt;HTTP2 (TLS&lt;/b&gt;&lt;b style=&quot;color: light-dark(rgb(0, 0, 0), rgb(255, 255, 255));&quot;&gt;)&lt;/b&gt;" style="edgeLabel;html=1;align=center;verticalAlign=middle;resizable=0;points=[];" parent="6tGMRK2spo7_5NMBX7Hg-54" vertex="1" connectable="0">
          <mxGeometry x="-0.5199" y="-1" relative="1" as="geometry">
            <mxPoint x="1" as="offset" />
          </mxGeometry>
        </mxCell>
        <mxCell id="6tGMRK2spo7_5NMBX7Hg-47" style="edgeStyle=orthogonalEdgeStyle;rounded=0;orthogonalLoop=1;jettySize=auto;html=1;exitX=0.5;exitY=1;exitDx=0;exitDy=0;exitPerimeter=0;entryX=0.625;entryY=0;entryDx=0;entryDy=0;entryPerimeter=0;" parent="1" source="6tGMRK2spo7_5NMBX7Hg-16" target="vuh57hzrrYicF6vYEetf-2" edge="1">
          <mxGeometry relative="1" as="geometry">
            <mxPoint x="509" y="795.5500000000002" as="targetPoint" />
          </mxGeometry>
        </mxCell>
        <mxCell id="uSaKlAHMNxB41dpOqZy7-8" value="&lt;b&gt;HTTP3&amp;nbsp;(TLS)&lt;/b&gt;" style="edgeLabel;html=1;align=center;verticalAlign=middle;resizable=0;points=[];" parent="6tGMRK2spo7_5NMBX7Hg-47" vertex="1" connectable="0">
          <mxGeometry x="-0.422" y="-1" relative="1" as="geometry">
            <mxPoint as="offset" />
          </mxGeometry>
        </mxCell>
        <mxCell id="6tGMRK2spo7_5NMBX7Hg-71" style="edgeStyle=orthogonalEdgeStyle;rounded=0;orthogonalLoop=1;jettySize=auto;html=1;exitX=1;exitY=0.5;exitDx=0;exitDy=0;exitPerimeter=0;entryX=-0.07;entryY=0.518;entryDx=0;entryDy=0;entryPerimeter=0;" parent="1" source="6tGMRK2spo7_5NMBX7Hg-8" target="Cl7ddv3Pd11VFtuF2Uvl-21" edge="1">
          <mxGeometry relative="1" as="geometry">
            <Array as="points">
              <mxPoint x="528" y="436" />
            </Array>
            <mxPoint x="670" y="439" as="targetPoint" />
          </mxGeometry>
        </mxCell>
        <mxCell id="uSaKlAHMNxB41dpOqZy7-26" value="&lt;b&gt;PSQL (TLS&lt;/b&gt;&lt;b style=&quot;color: light-dark(rgb(0, 0, 0), rgb(255, 255, 255));&quot;&gt;)&lt;/b&gt;" style="edgeLabel;html=1;align=center;verticalAlign=middle;resizable=0;points=[];" parent="6tGMRK2spo7_5NMBX7Hg-71" vertex="1" connectable="0">
          <mxGeometry x="-0.0486" relative="1" as="geometry">
            <mxPoint as="offset" />
          </mxGeometry>
        </mxCell>
        <mxCell id="6tGMRK2spo7_5NMBX7Hg-78" style="edgeStyle=orthogonalEdgeStyle;rounded=0;orthogonalLoop=1;jettySize=auto;html=1;exitX=0.995;exitY=0.63;exitDx=0;exitDy=0;exitPerimeter=0;entryX=0;entryY=0.767;entryDx=0;entryDy=0;entryPerimeter=0;" parent="1" source="6tGMRK2spo7_5NMBX7Hg-15" target="Cl7ddv3Pd11VFtuF2Uvl-23" edge="1">
          <mxGeometry relative="1" as="geometry">
            <mxPoint x="556.1700000000001" y="597.9999999999995" as="sourcePoint" />
            <mxPoint x="1410" y="610" as="targetPoint" />
            <Array as="points" />
          </mxGeometry>
        </mxCell>
        <mxCell id="uSaKlAHMNxB41dpOqZy7-25" value="&lt;b&gt;PSQL (TLS&lt;/b&gt;&lt;b style=&quot;color: light-dark(rgb(0, 0, 0), rgb(255, 255, 255));&quot;&gt;)&lt;/b&gt;" style="edgeLabel;html=1;align=center;verticalAlign=middle;resizable=0;points=[];" parent="6tGMRK2spo7_5NMBX7Hg-78" vertex="1" connectable="0">
          <mxGeometry x="-0.0706" y="-2" relative="1" as="geometry">
            <mxPoint x="1" as="offset" />
          </mxGeometry>
        </mxCell>
        <mxCell id="6tGMRK2spo7_5NMBX7Hg-90" style="edgeStyle=orthogonalEdgeStyle;rounded=0;orthogonalLoop=1;jettySize=auto;html=1;entryX=0.005;entryY=0.63;entryDx=0;entryDy=0;entryPerimeter=0;" parent="1" source="6tGMRK2spo7_5NMBX7Hg-89" target="6tGMRK2spo7_5NMBX7Hg-16" edge="1">
          <mxGeometry relative="1" as="geometry">
            <Array as="points">
              <mxPoint x="180" y="690" />
            </Array>
          </mxGeometry>
        </mxCell>
        <mxCell id="uSaKlAHMNxB41dpOqZy7-13" value="&lt;b&gt;GRPC (HTTP2)&lt;/b&gt;" style="edgeLabel;html=1;align=center;verticalAlign=middle;resizable=0;points=[];" parent="6tGMRK2spo7_5NMBX7Hg-90" vertex="1" connectable="0">
          <mxGeometry x="0.36" relative="1" as="geometry">
            <mxPoint x="-1" as="offset" />
          </mxGeometry>
        </mxCell>
        <mxCell id="6tGMRK2spo7_5NMBX7Hg-92" value="" style="group" parent="1" vertex="1" connectable="0">
          <mxGeometry x="140" y="413.66" width="68.17000000000002" height="64.34000000000003" as="geometry" />
        </mxCell>
        <mxCell id="6tGMRK2spo7_5NMBX7Hg-89" value="Api Gateway" style="sketch=0;outlineConnect=0;fontColor=#232F3E;gradientColor=none;fillColor=#E7157B;strokeColor=none;dashed=0;verticalLabelPosition=bottom;verticalAlign=top;align=center;html=1;fontSize=12;fontStyle=0;aspect=fixed;pointerEvents=1;shape=mxgraph.aws4.endpoint;" parent="6tGMRK2spo7_5NMBX7Hg-92" vertex="1">
          <mxGeometry y="6.170000000000016" width="58.17" height="58.17" as="geometry" />
        </mxCell>
        <mxCell id="6tGMRK2spo7_5NMBX7Hg-91" value="" style="sketch=0;outlineConnect=0;fontColor=#232F3E;gradientColor=none;fillColor=#E7157B;strokeColor=none;dashed=0;verticalLabelPosition=bottom;verticalAlign=top;align=center;html=1;fontSize=12;fontStyle=0;aspect=fixed;pointerEvents=1;shape=mxgraph.aws4.endpoint;" parent="6tGMRK2spo7_5NMBX7Hg-92" vertex="1">
          <mxGeometry x="10" width="58.17" height="58.17" as="geometry" />
        </mxCell>
        <mxCell id="6tGMRK2spo7_5NMBX7Hg-94" style="edgeStyle=orthogonalEdgeStyle;rounded=0;orthogonalLoop=1;jettySize=auto;html=1;entryX=0;entryY=0.5;entryDx=0;entryDy=0;entryPerimeter=0;" parent="1" source="ivQptXM1TXExOYF5JyEC-2" target="I1dAC8_sid-gOvK0m6Eg-15" edge="1">
          <mxGeometry relative="1" as="geometry">
            <Array as="points">
              <mxPoint x="-230" y="446" />
              <mxPoint x="-230" y="446" />
            </Array>
          </mxGeometry>
        </mxCell>
        <mxCell id="uSaKlAHMNxB41dpOqZy7-4" value="&lt;b&gt;HTTP3&amp;nbsp;(TLS)&lt;/b&gt;" style="edgeLabel;html=1;align=center;verticalAlign=middle;resizable=0;points=[];" parent="6tGMRK2spo7_5NMBX7Hg-94" vertex="1" connectable="0">
          <mxGeometry x="-0.2139" y="-3" relative="1" as="geometry">
            <mxPoint x="1" as="offset" />
          </mxGeometry>
        </mxCell>
        <mxCell id="6tGMRK2spo7_5NMBX7Hg-95" style="edgeStyle=orthogonalEdgeStyle;rounded=0;orthogonalLoop=1;jettySize=auto;html=1;entryX=0.432;entryY=0.955;entryDx=0;entryDy=0;entryPerimeter=0;exitX=0.494;exitY=-0.017;exitDx=0;exitDy=0;exitPerimeter=0;" parent="1" source="ivQptXM1TXExOYF5JyEC-2" target="ivQptXM1TXExOYF5JyEC-15" edge="1">
          <mxGeometry relative="1" as="geometry">
            <Array as="points">
              <mxPoint x="-384" y="420" />
            </Array>
          </mxGeometry>
        </mxCell>
        <mxCell id="uSaKlAHMNxB41dpOqZy7-5" value="&lt;b&gt;HTTP 3&amp;nbsp;&lt;/b&gt;&lt;b style=&quot;color: light-dark(rgb(0, 0, 0), rgb(255, 255, 255));&quot;&gt;(TLS)&lt;/b&gt;" style="edgeLabel;html=1;align=center;verticalAlign=middle;resizable=0;points=[];" parent="6tGMRK2spo7_5NMBX7Hg-95" vertex="1" connectable="0">
          <mxGeometry x="-0.3035" y="1" relative="1" as="geometry">
            <mxPoint as="offset" />
          </mxGeometry>
        </mxCell>
        <mxCell id="6tGMRK2spo7_5NMBX7Hg-96" style="edgeStyle=orthogonalEdgeStyle;rounded=0;orthogonalLoop=1;jettySize=auto;html=1;" parent="1" source="6tGMRK2spo7_5NMBX7Hg-15" edge="1">
          <mxGeometry relative="1" as="geometry">
            <mxPoint x="500" y="460" as="targetPoint" />
            <Array as="points">
              <mxPoint x="500" y="461" />
            </Array>
          </mxGeometry>
        </mxCell>
        <mxCell id="uSaKlAHMNxB41dpOqZy7-16" value="&lt;b&gt;GRPC (HTTP2)&lt;/b&gt;" style="edgeLabel;html=1;align=center;verticalAlign=middle;resizable=0;points=[];" parent="6tGMRK2spo7_5NMBX7Hg-96" vertex="1" connectable="0">
          <mxGeometry x="0.1134" y="2" relative="1" as="geometry">
            <mxPoint as="offset" />
          </mxGeometry>
        </mxCell>
        <mxCell id="Cl7ddv3Pd11VFtuF2Uvl-21" value="DB&amp;nbsp;&lt;span style=&quot;background-color: light-dark(rgb(255, 255, 255), rgb(18, 18, 18)); color: light-dark(rgb(0, 0, 0), rgb(255, 255, 255));&quot;&gt;Statistics Service&lt;/span&gt;" style="html=1;verticalLabelPosition=bottom;align=center;labelBackgroundColor=#ffffff;verticalAlign=top;strokeWidth=2;strokeColor=#888888;shadow=0;dashed=0;shape=mxgraph.ios7.icons.data;" parent="1" vertex="1">
          <mxGeometry x="700" y="415.86" width="40" height="39.1" as="geometry" />
        </mxCell>
        <mxCell id="Cl7ddv3Pd11VFtuF2Uvl-23" value="DB&amp;nbsp;&lt;span style=&quot;background-color: light-dark(rgb(255, 255, 255), rgb(18, 18, 18)); color: light-dark(rgb(0, 0, 0), rgb(255, 255, 255));&quot;&gt;User Service&lt;/span&gt;" style="html=1;verticalLabelPosition=bottom;align=center;labelBackgroundColor=#ffffff;verticalAlign=top;strokeWidth=2;strokeColor=#0080F0;shadow=0;dashed=0;shape=mxgraph.ios7.icons.data;" parent="1" vertex="1">
          <mxGeometry x="660" y="654.45" width="40" height="39.1" as="geometry" />
        </mxCell>
        <mxCell id="I1dAC8_sid-gOvK0m6Eg-16" style="edgeStyle=orthogonalEdgeStyle;rounded=0;orthogonalLoop=1;jettySize=auto;html=1;" parent="1" source="I1dAC8_sid-gOvK0m6Eg-15" target="6tGMRK2spo7_5NMBX7Hg-89" edge="1">
          <mxGeometry relative="1" as="geometry" />
        </mxCell>
        <mxCell id="uSaKlAHMNxB41dpOqZy7-9" value="&lt;b&gt;HTTP2&amp;nbsp;(TLS)&lt;/b&gt;" style="edgeLabel;html=1;align=center;verticalAlign=middle;resizable=0;points=[];" parent="I1dAC8_sid-gOvK0m6Eg-16" vertex="1" connectable="0">
          <mxGeometry x="0.0343" relative="1" as="geometry">
            <mxPoint x="-1" as="offset" />
          </mxGeometry>
        </mxCell>
        <mxCell id="I1dAC8_sid-gOvK0m6Eg-15" value="load balancer" style="outlineConnect=0;dashed=0;verticalLabelPosition=bottom;verticalAlign=top;align=center;html=1;shape=mxgraph.aws3.classic_load_balancer;fillColor=#F58534;gradientColor=none;" parent="1" vertex="1">
          <mxGeometry x="-70" y="419.83000000000004" width="56.06" height="52" as="geometry" />
        </mxCell>
        <mxCell id="vuh57hzrrYicF6vYEetf-2" value="Foreign Oauth 2" style="shape=mxgraph.sap.icon;labelPosition=center;verticalLabelPosition=bottom;align=center;verticalAlign=top;strokeWidth=1;strokeColor=#D5DADD;fillColor=#EDEFF0;gradientColor=#FCFCFC;gradientDirection=west;aspect=fixed;SAPIcon=OAuth_20" parent="1" vertex="1">
          <mxGeometry x="438" y="980" width="100" height="100" as="geometry" />
        </mxCell>
        <mxCell id="uSaKlAHMNxB41dpOqZy7-1" style="edgeStyle=orthogonalEdgeStyle;rounded=0;orthogonalLoop=1;jettySize=auto;html=1;entryX=0.104;entryY=0.618;entryDx=0;entryDy=0;entryPerimeter=0;" parent="1" source="ivQptXM1TXExOYF5JyEC-6" target="ivQptXM1TXExOYF5JyEC-11" edge="1">
          <mxGeometry relative="1" as="geometry">
            <Array as="points">
              <mxPoint x="515" y="120" />
              <mxPoint x="515" y="100" />
            </Array>
          </mxGeometry>
        </mxCell>
        <mxCell id="uSaKlAHMNxB41dpOqZy7-2" value="Sends video file" style="edgeLabel;html=1;align=center;verticalAlign=middle;resizable=0;points=[];" parent="uSaKlAHMNxB41dpOqZy7-1" vertex="1" connectable="0">
          <mxGeometry x="0.2952" y="1" relative="1" as="geometry">
            <mxPoint x="-1" as="offset" />
          </mxGeometry>
        </mxCell>
        <mxCell id="uSaKlAHMNxB41dpOqZy7-27" value="&lt;b&gt;HTTP2 (TLS&lt;/b&gt;&lt;b style=&quot;color: light-dark(rgb(0, 0, 0), rgb(255, 255, 255));&quot;&gt;)&lt;/b&gt;" style="edgeLabel;html=1;align=center;verticalAlign=middle;resizable=0;points=[];" parent="uSaKlAHMNxB41dpOqZy7-1" vertex="1" connectable="0">
          <mxGeometry x="-0.3979" y="3" relative="1" as="geometry">
            <mxPoint as="offset" />
          </mxGeometry>
        </mxCell>
        <mxCell id="MMesEljA1Y2_ANh_13ck-1" value="Kafka" style="verticalLabelPosition=bottom;html=1;verticalAlign=top;align=center;strokeColor=none;fillColor=#00BEF2;shape=mxgraph.azure.queue_generic;pointerEvents=1;" vertex="1" parent="1">
          <mxGeometry x="880" y="340" width="70" height="30" as="geometry" />
        </mxCell>
        <mxCell id="MMesEljA1Y2_ANh_13ck-2" value="Send some&lt;div&gt;video meta&lt;/div&gt;&lt;div&gt;for save&lt;/div&gt;" style="edgeStyle=orthogonalEdgeStyle;rounded=0;orthogonalLoop=1;jettySize=auto;html=1;exitX=0;exitY=0.5;exitDx=0;exitDy=0;exitPerimeter=0;entryX=0.98;entryY=0.02;entryDx=0;entryDy=0;entryPerimeter=0;" edge="1" parent="1" source="MMesEljA1Y2_ANh_13ck-1" target="6tGMRK2spo7_5NMBX7Hg-9">
          <mxGeometry relative="1" as="geometry" />
        </mxCell>
        <mxCell id="MMesEljA1Y2_ANh_13ck-3" value="&lt;b&gt;TCP (TLS)&lt;/b&gt;" style="edgeLabel;html=1;align=center;verticalAlign=middle;resizable=0;points=[];" vertex="1" connectable="0" parent="MMesEljA1Y2_ANh_13ck-2">
          <mxGeometry x="-0.4196" y="-5" relative="1" as="geometry">
            <mxPoint x="1" as="offset" />
          </mxGeometry>
        </mxCell>
        <mxCell id="MMesEljA1Y2_ANh_13ck-4" value="" style="sketch=0;points=[[0,0,0],[0.25,0,0],[0.5,0,0],[0.75,0,0],[1,0,0],[0,1,0],[0.25,1,0],[0.5,1,0],[0.75,1,0],[1,1,0],[0,0.25,0],[0,0.5,0],[0,0.75,0],[1,0.25,0],[1,0.5,0],[1,0.75,0]];points=[[0,0,0],[0.25,0,0],[0.5,0,0],[0.75,0,0],[1,0,0],[0,1,0],[0.25,1,0],[0.5,1,0],[0.75,1,0],[1,1,0],[0,0.25,0],[0,0.5,0],[0,0.75,0],[1,0.25,0],[1,0.5,0],[1,0.75,0]];outlineConnect=0;fontColor=#232F3E;fillColor=#E7157B;strokeColor=#ffffff;dashed=0;verticalLabelPosition=bottom;verticalAlign=top;align=center;html=1;fontSize=12;fontStyle=0;aspect=fixed;shape=mxgraph.aws4.resourceIcon;resIcon=mxgraph.aws4.user_notifications;" vertex="1" parent="1">
          <mxGeometry x="892" y="670" width="58" height="58" as="geometry" />
        </mxCell>
        <mxCell id="MMesEljA1Y2_ANh_13ck-5" value="" style="sketch=0;html=1;aspect=fixed;strokeColor=none;shadow=0;align=center;fillColor=#E7157B;verticalAlign=top;labelPosition=center;verticalLabelPosition=bottom;shape=mxgraph.gcp2.external_data_center" vertex="1" parent="1">
          <mxGeometry x="873" y="830" width="77" height="100" as="geometry" />
        </mxCell>
        <mxCell id="MMesEljA1Y2_ANh_13ck-6" style="edgeStyle=orthogonalEdgeStyle;rounded=0;orthogonalLoop=1;jettySize=auto;html=1;exitX=1;exitY=0.51;exitDx=0;exitDy=0;exitPerimeter=0;entryX=0.5;entryY=0;entryDx=0;entryDy=0;entryPerimeter=0;" edge="1" parent="1" source="MMesEljA1Y2_ANh_13ck-1" target="MMesEljA1Y2_ANh_13ck-4">
          <mxGeometry relative="1" as="geometry" />
        </mxCell>
        <mxCell id="MMesEljA1Y2_ANh_13ck-8" value="&lt;b&gt;TCP (TLS)&lt;/b&gt;" style="edgeLabel;html=1;align=center;verticalAlign=middle;resizable=0;points=[];" vertex="1" connectable="0" parent="MMesEljA1Y2_ANh_13ck-6">
          <mxGeometry x="-0.4289" y="3" relative="1" as="geometry">
            <mxPoint as="offset" />
          </mxGeometry>
        </mxCell>
        <mxCell id="MMesEljA1Y2_ANh_13ck-9" value="Send notification data" style="edgeLabel;html=1;align=center;verticalAlign=middle;resizable=0;points=[];" vertex="1" connectable="0" parent="MMesEljA1Y2_ANh_13ck-6">
          <mxGeometry x="-0.1879" y="2" relative="1" as="geometry">
            <mxPoint as="offset" />
          </mxGeometry>
        </mxCell>
        <mxCell id="MMesEljA1Y2_ANh_13ck-7" style="edgeStyle=orthogonalEdgeStyle;rounded=0;orthogonalLoop=1;jettySize=auto;html=1;exitX=0.5;exitY=1;exitDx=0;exitDy=0;exitPerimeter=0;entryX=0.506;entryY=0.014;entryDx=0;entryDy=0;entryPerimeter=0;" edge="1" parent="1" source="MMesEljA1Y2_ANh_13ck-4" target="MMesEljA1Y2_ANh_13ck-5">
          <mxGeometry relative="1" as="geometry" />
        </mxCell>
        <mxCell id="MMesEljA1Y2_ANh_13ck-10" style="edgeStyle=orthogonalEdgeStyle;rounded=0;orthogonalLoop=1;jettySize=auto;html=1;exitX=0;exitY=0.5;exitDx=0;exitDy=0;exitPerimeter=0;entryX=0.98;entryY=0.98;entryDx=0;entryDy=0;entryPerimeter=0;" edge="1" parent="1" source="MMesEljA1Y2_ANh_13ck-4" target="6tGMRK2spo7_5NMBX7Hg-9">
          <mxGeometry relative="1" as="geometry">
            <Array as="points">
              <mxPoint x="892" y="530" />
              <mxPoint x="533" y="530" />
            </Array>
          </mxGeometry>
        </mxCell>
        <mxCell id="MMesEljA1Y2_ANh_13ck-11" value="&lt;b&gt;GRPC (HTTP2)&lt;/b&gt;" style="edgeLabel;html=1;align=center;verticalAlign=middle;resizable=0;points=[];" vertex="1" connectable="0" parent="MMesEljA1Y2_ANh_13ck-10">
          <mxGeometry x="0.0443" relative="1" as="geometry">
            <mxPoint as="offset" />
          </mxGeometry>
        </mxCell>
      </root>
    </mxGraphModel>
  </diagram>
</mxfile>
